<?xml version="1.1" standalone="no"?>
<svg xmlns="http://www.w3.org/2000/svg" version="1.1" baseProfile="full" width="320.52000732421874" height="117.34853296560601" viewBox="0 0 350 128.14172469556996">
	<defs id="SvgjsDefs1601">
	</defs>
	<g id="SvgjsG1602" featurekey="symbolFeature-0" transform="matrix(1.4038747079035279,0,0,1.4038747079035279,104.8062652951626,-29.393993538685265)" fill="#111111">
		<path xmlns="http://www.w3.org/2000/svg" d=" M 59.193 20.938 C 57.806 20.956 56.779 21.984 56.779 21.984 C 54.098 20.481 52.069 22.836 52.069 22.836 C 53.96 21.679 55.853 21.435 56.94 23.12 C 57.363 22.091 58.415 20.882 60.676 21.333 C 60.158 21.039 59.655 20.932 59.193 20.938 L 59.193 20.938 Z  M 45.609 24.937 C 42.746 24.972 40.626 27.093 40.626 27.093 C 35.099 23.994 30.91 28.852 30.91 28.852 C 34.811 26.463 38.718 25.96 40.961 29.438 C 41.832 27.316 44.004 24.821 48.667 25.752 C 47.599 25.145 46.563 24.926 45.609 24.937 L 45.609 24.937 Z  M 55.786 29.601 C 52.792 29.617 50.481 31.227 50.481 31.227 C 55.397 29.707 59.796 30.244 61.277 34.658 C 62.815 32.586 65.876 30.468 70.702 32.778 C 66.718 28.945 61.563 32.008 61.563 32.008 C 59.626 30.165 57.583 29.594 55.786 29.601 Z  M 37.669 34.002 C 36.78 34.018 36.121 34.673 36.121 34.673 C 34.403 33.709 33.102 35.219 33.102 35.219 C 34.313 34.477 35.528 34.321 36.225 35.401 C 36.495 34.742 37.17 33.966 38.62 34.255 C 38.288 34.066 37.966 33.998 37.669 34.002 L 37.669 34.002 Z  M 45.716 36.435 C 44.764 36.435 44.057 37.06 44.057 37.06 L 44.057 37.06 C 45.36 36.492 46.584 36.503 47.126 37.669 C 47.484 37.053 48.26 36.378 49.656 36.864 C 48.444 35.933 47.123 36.934 47.123 36.934 C 46.632 36.562 46.149 36.435 45.716 36.436 L 45.716 36.435 Z  M 29.708 40.315 L 6.986 70 L 6.964 70.11 L 0.138 79.062 L 7.933 79.062 L 33.779 44.656 L 59.625 79.062 L 67.458 79.062 L 60.551 70.004 L 60.535 69.961 L 37.939 40.316 L 29.702 40.316 L 29.708 40.315 Z  M 62.109 40.315 L 50.001 56.132 L 53.808 61.126 L 66.182 44.654 L 92.029 79.061 L 99.862 79.061 L 92.955 70.003 L 92.955 70.003 L 92.94 69.959 L 70.342 40.315 L 62.109 40.315 Z  M 28.527 60.432 L 28.527 65.529 L 33.623 65.529 L 33.623 60.432 L 28.527 60.432 Z  M 33.973 60.432 L 33.973 65.529 L 39.07 65.529 L 39.07 60.432 L 33.973 60.432 Z  M 61.324 60.432 L 61.324 65.529 L 66.42 65.529 L 66.42 60.432 L 61.324 60.432 Z  M 66.77 60.432 L 66.77 65.529 L 71.866 65.529 L 71.866 60.432 L 66.77 60.432 Z  M 28.527 65.847 L 28.527 70.944 L 33.623 70.944 L 33.623 65.847 L 28.527 65.847 Z  M 33.973 65.847 L 33.973 70.944 L 39.07 70.944 L 39.07 65.847 L 33.973 65.847 Z  M 61.324 65.847 L 61.324 70.944 L 66.42 70.944 L 66.42 65.847 L 61.324 65.847 Z  M 66.77 65.847 L 66.77 70.944 L 71.866 70.944 L 71.866 65.847 L 66.77 65.847 Z " fill="#111111">
		</path>
	</g>
	<g id="SvgjsG1603" featurekey="nameFeature-0" transform="matrix(0.8748904651448591,0,0,0.8748904651448591,-1.294837383626249,94.5109364168808)" fill="#111111">
		<path d="M34.6 11.32 c-0.74668 0 -1.12 0.37332 -1.12 1.12 l0 10.88 l-29.76 0 l0 -10.88 c0 -0.74668 -0.37332 -1.12 -1.12 -1.12 s-1.12 0.37332 -1.12 1.12 l0 24 c0 0.74668 0.37332 1.12 1.12 1.12 s1.12 -0.37332 1.12 -1.12 l0 -10.88 l29.76 0 l0 10.88 c0 0.74668 0.37332 1.12 1.12 1.12 s1.12 -0.37332 1.12 -1.12 l0 -24 c0 -0.74668 -0.37332 -1.12 -1.12 -1.12 z M56.71 10.440000000000001 c-4.8532 0 -9.0132 1.32 -12.48 3.96 c-3.5467 2.6933 -5.32 5.9732 -5.32 9.84 s1.7733 7.1468 5.32 9.84 c3.44 2.6133 7.6 3.92 12.48 3.92 s9.0268 -1.3067 12.44 -3.92 c3.5467 -2.72 5.32 -6 5.32 -9.84 s-1.7733 -7.12 -5.32 -9.84 c-3.4667 -2.64 -7.6132 -3.96 -12.44 -3.96 z M72.27 24.240000000000002 c0 3.1733 -1.52 5.8868 -4.56 8.14 s-6.7068 3.38 -11 3.38 s-7.96 -1.1267 -11 -3.38 s-4.56 -4.9668 -4.56 -8.14 c0 -3.2 1.52 -5.9268 4.56 -8.18 s6.7068 -3.38 11 -3.38 s7.96 1.1267 11 3.38 s4.56 4.98 4.56 8.18 z M94.46 34.2 l-17.12 -25.64 l0 27.68 c0 0.72 0.37332 1.08 1.12 1.08 c0.72 0 1.08 -0.36 1.08 -1.08 l0 -20.36 l14.92 22.36 l14.88 -22.36 l0 20.36 c0 0.72 0.37332 1.08 1.12 1.08 c0.72 0 1.08 -0.36 1.08 -1.08 l0 -27.68 z M148.13 25.119999999999997 c0.74668 0 1.12 -0.37332 1.12 -1.12 s-0.37332 -1.12 -1.12 -1.12 l-30.88 0 l0 -9.76 l30.88 0 c0.74668 0 1.12 -0.37332 1.12 -1.12 s-0.37332 -1.12 -1.12 -1.12 l-33.12 0 l0 26.24 l33.12 0 c0.74668 0 1.12 -0.37332 1.12 -1.12 s-0.37332 -1.12 -1.12 -1.12 l-30.88 0 l0 -9.76 l30.88 0 z M165.23000000000002 28 c0 2.7467 1.6533 5.06 4.96 6.94 s7.36 2.82 12.16 2.82 c4.7732 0 8.6668 -0.52 11.68 -1.56 c3.6267 -1.2533 5.44 -3.0933 5.44 -5.52 c0 -2.5333 -1.5467 -4.36 -4.64 -5.48 c-1.76 -0.64 -5.1868 -1.3067 -10.28 -2 l-3.96 -0.56 c-4.8268 -0.69332 -8.0268 -1.3066 -9.6 -1.84 c-2.3467 -0.8 -3.52 -1.96 -3.52 -3.48 c0 -1.44 1.3867 -2.6133 4.16 -3.52 s6.3468 -1.36 10.72 -1.36 c4.0268 0 7.5132 0.74668 10.46 2.24 s4.42 3.2666 4.42 5.32 l0 0 c0 0.74668 0.37332 1.12 1.12 1.12 s1.12 -0.37332 1.12 -1.12 l0 0 c0 -2.7467 -1.6533 -5.06 -4.96 -6.94 s-7.36 -2.82 -12.16 -2.82 c-4.7732 0 -8.6668 0.52 -11.68 1.56 c-3.6267 1.2533 -5.44 3.0933 -5.44 5.52 c0 2.5333 1.6133 4.3732 4.84 5.52 c1.5467 0.53332 4.96 1.2 10.24 2 l1.88 0.28 l2.04 0.28 c4.88 0.66668 8.12 1.28 9.72 1.84 c2.1867 0.74668 3.28 1.8934 3.28 3.44 c0 1.44 -1.3867 2.6133 -4.16 3.52 s-6.3468 1.36 -10.72 1.36 c-4.0268 0 -7.5132 -0.74668 -10.46 -2.24 s-4.42 -3.2666 -4.42 -5.32 l0 0 c0 -0.74668 -0.37332 -1.12 -1.12 -1.12 s-1.12 0.37332 -1.12 1.12 z M235.94000000000003 10.879999999999999 l-32 0 c-0.74668 0 -1.12 0.37332 -1.12 1.12 s0.37332 1.12 1.12 1.12 l14.88 0 l0 22.88 c0 0.74668 0.37332 1.12 1.12 1.12 s1.12 -0.37332 1.12 -1.12 l0 -22.88 l14.88 0 c0.74668 0 1.12 -0.37332 1.12 -1.12 s-0.37332 -1.12 -1.12 -1.12 z M282.61 35.28 l-21.52 -25 l-20.84 25 c-0.16 0.18668 -0.24 0.41336 -0.24 0.68004 c0 0.77332 0.38668 1.16 1.16 1.16 c0.32 0 0.58668 -0.13332 0.8 -0.4 l0 0 l6.32 -7.6 l26.08 0 l6.56 7.6 c0.24 0.26668 0.53332 0.4 0.88 0.4 c0.72 0 1.08 -0.36 1.08 -1.08 c0 -0.29332 -0.09332 -0.54664 -0.28 -0.75996 z M250.17000000000002 26.880000000000003 l10.96 -13.16 l11.36 13.16 l-22.32 0 z M304.6 27.119999999999997 c-0.74668 0 -1.1199 0.37332 -1.1199 1.12 c0 0.72 0.37332 1.08 1.12 1.08 l12.88 0 l0 1.36 c-1.4667 1.6 -3.3334 2.8467 -5.6 3.74 s-4.6932 1.34 -7.28 1.34 c-4.2932 0 -7.96 -1.1267 -11 -3.38 s-4.56 -4.9668 -4.56 -8.14 c0 -3.2 1.52 -5.9268 4.56 -8.18 s6.7068 -3.38 11 -3.38 c2.64 0 5.1132 0.46668 7.42 1.4 s4.18 2.2266 5.62 3.88 l0 0 c0.21332 0.26668 0.49332 0.4 0.84 0.4 c0.74668 0 1.12 -0.37332 1.12 -1.12 c0 -0.26668 -0.09332 -0.50668 -0.28 -0.72 c-1.68 -1.8933 -3.8133 -3.38 -6.4 -4.46 s-5.36 -1.62 -8.32 -1.62 c-4.8532 0 -9.0132 1.32 -12.48 3.96 c-3.5467 2.6933 -5.32 5.9732 -5.32 9.84 s1.7733 7.1468 5.32 9.84 c3.44 2.6133 7.6 3.92 12.48 3.92 c5.0932 0 9.3868 -1.4267 12.88 -4.28 l0 2.52 c0 0.72 0.37332 1.08 1.12 1.08 c0.72 0 1.08 -0.36 1.08 -1.08 l0 -9.12 l-15.08 0 z M324.34999999999997 12.239999999999998 l0 24 c0 0.72 0.36 1.08 1.08 1.08 c0.74668 0 1.12 -0.36 1.12 -1.08 l0 0 l0 -24 c0 -0.74668 -0.37332 -1.12 -1.12 -1.12 c-0.72 0 -1.08 0.37332 -1.08 1.12 z M363.74 11.120000000000001 c-0.74668 0 -1.12 0.37332 -1.12 1.12 l0 21.76 l-32 -24 l0 26.24 c0 0.72 0.37332 1.08 1.12 1.08 s1.12 -0.36 1.12 -1.08 l0 -21.8 l32 24 l0 -26.2 c0 -0.74668 -0.37332 -1.12 -1.12 -1.12 z M386.45000000000005 27.119999999999997 c-0.74668 0 -1.1199 0.37332 -1.1199 1.12 c0 0.72 0.37332 1.08 1.12 1.08 l12.88 0 l0 1.36 c-1.4667 1.6 -3.3334 2.8467 -5.6 3.74 s-4.6932 1.34 -7.28 1.34 c-4.2932 0 -7.96 -1.1267 -11 -3.38 s-4.56 -4.9668 -4.56 -8.14 c0 -3.2 1.52 -5.9268 4.56 -8.18 s6.7068 -3.38 11 -3.38 c2.64 0 5.1132 0.46668 7.42 1.4 s4.18 2.2266 5.62 3.88 l0 0 c0.21332 0.26668 0.49332 0.4 0.84 0.4 c0.74668 0 1.12 -0.37332 1.12 -1.12 c0 -0.26668 -0.09332 -0.50668 -0.28 -0.72 c-1.68 -1.8933 -3.8133 -3.38 -6.4 -4.46 s-5.36 -1.62 -8.32 -1.62 c-4.8532 0 -9.0132 1.32 -12.48 3.96 c-3.5467 2.6933 -5.32 5.9732 -5.32 9.84 s1.7733 7.1468 5.32 9.84 c3.44 2.6133 7.6 3.92 12.48 3.92 c5.0932 0 9.3868 -1.4267 12.88 -4.28 l0 2.52 c0 0.72 0.37332 1.08 1.12 1.08 c0.72 0 1.08 -0.36 1.08 -1.08 l0 -9.12 l-15.08 0 z">
		</path>
	</g>
</svg>
