<?xml version="1.1" standalone="no"?>
<svg xmlns="http://www.w3.org/2000/svg" version="1.1" baseProfile="full" width="396" height="119.41258983880377" viewBox="0 0 369.6551724137931 111.46838758899132" class="css-1j8o68f">
	<defs id="SvgjsDefs1623">
	</defs>
	<g id="SvgjsG1624" featurekey="symbolFeature-0" transform="matrix(1.25501526878432,0,0,1.25501526878432,-32.57827543981117,-7.016585802544022)" fill="#111111">
		<defs xmlns="http://www.w3.org/2000/svg">
		</defs>
		<g xmlns="http://www.w3.org/2000/svg">
			<path class="fil0" d="M29.4994 45.3122c1.33111,0.335436 2.48978,1.30277 3.09451,2.45317 0.28701,-2.28781 1.97718,-3.61775 3.83035,-2.98113 3.44766,1.18465 4.20948,7.51187 0.884653,8.63275 0.292916,0.602367 0.61654,1.17166 0.963787,1.71379 1.21773,-1.43033 3.61893,0.0708667 4.73035,1.22245 -1.56025,-4.25436 -2.51813,-8.76739 -3.39333,-13.4729l-1.41261 -0.788983c-0.923629,1.32285 -4.60161,-1.86025 -6.00359,-4.57799 -1.05828,-2.05041 -0.66969,-3.25869 0.868117,-2.69766 1.73269,0.633076 5.08705,4.04176 5.28902,6.48785l1.08072 0.603548c-0.462996,-2.56537 -0.895283,-5.22996 -1.31576,-7.93471 -1.38781,0.167718 -3.04963,-0.52087 -4.04413,-1.77049 -1.26851,-1.59332 -0.928354,-3.45003 0.720478,-4.02287 -1.13859,-1.07717 -1.61576,-2.89845 -1.07009,-4.5024 0.666147,-1.95946 2.60553,-2.85475 4.33114,-1.99844 2.58782,1.28387 2.97404,5.70359 0.26575,7.09612 1.9949,1.28269 2.8512,4.08665 0.54213,5.01028 0.314176,2.02206 0.633076,4.02169 0.96733,5.9717l1.32403 -1.79057c-0.941346,-1.86852 1.2697,-6.84927 2.98703,-8.16148 1.30159,-0.992134 2.03269,0.0460634 1.63112,2.31852 -0.409846,2.32561 -2.41655,6.36619 -4.00043,6.2906l-1.76104 2.3823c0.256301,1.45395 0.52087,2.87719 0.79725,4.25909 0.270475,-1.95002 1.41615,-3.88468 2.64923,-4.41854 1.29804,-0.561028 2.20159,0.647249 2.01734,2.69884 -0.186616,2.07994 -1.50474,4.62405 -3.10987,4.85555l-0.232679 2.71183c1.3382,5.1591 2.96931,9.30834 5.13075,11.6339l-0.0330711 0.0295278 5.10004 0c0.128741,-0.957882 0.264569,-1.86616 0.402759,-2.72837 -1.27914,0.230317 -2.72128,0.204332 -4.08665,-0.134647 -4.77051,-1.18111 -4.88508,-4.78114 -0.976779,-6.07564 -3.05672,-1.76694 -3.52207,-6.64493 -0.641344,-6.24336l0.00590556 0.00118111c-0.578745,-2.13899 0.48898,-4.34531 3.00475,-3.89885 0.0814967,-1.12678 0.762998,-2.25238 1.74805,-3.03073 -0.263388,-0.337798 -0.548036,-0.682683 -0.857487,-1.03465 -1.75041,0.824416 -4.01224,-1.95238 -3.97326,-3.98507 0.0283467,-1.4882 1.13741,-2.16852 2.47561,-1.51773 1.50946,0.732289 3.09569,3.39924 2.06931,4.99492 0.333073,0.379137 0.641344,0.748825 0.923629,1.11261 1.24489,-0.705124 2.91144,-0.832684 3.91066,0.0625989 -1.04646,-1.77875 -1.5319,-4.21421 -0.315357,-5.88902 -2.15435,-1.6571 -3.28703,-4.59334 -1.10434,-4.86382 1.69371,-0.210238 4.47287,1.71143 5.29374,3.7583 1.35237,0.412208 2.54766,1.29568 3.46892,2.39529 0.256301,-2.43427 0.459452,-4.84374 0.568115,-7.20951l-0.934259 -1.08308c-1.6819,0.0401578 -4.30397,-1.27206 -5.42957,-2.30553 -1.05828,-0.972055 -0.66969,-1.54371 0.868117,-1.27796 1.87206,0.323625 5.57721,2.2323 5.28311,3.25278l0.256301 0.296459c0.0248033,-0.728746 0.0389767,-1.45277 0.04252,-2.17325l-1.13623 -1.65001c-0.133466,0.0472445 -0.27638,0.0838589 -0.426381,0.107481 -1.60986,0.25512 -3.54452,-0.976779 -4.31814,-2.75199 -0.774809,-1.77403 -0.0968512,-3.4205 1.513,-3.67444 1.50356,-0.238585 3.28821,0.819691 4.14925,2.40474 -0.0838589,-0.929535 -0.193702,-1.84608 -0.330711,-2.75081 -2.16852,-1.2071 -3.21617,-3.79491 -2.91616,-6.57879 -0.721659,-0.490161 -1.04765,-1.91222 -0.791345,-3.10869 0.571658,-2.66341 2.77679,-1.16339 2.42246,1.56025 1.07009,-1.40198 2.37876,0.864574 1.95356,2.84294 -0.131103,0.615359 -0.395672,1.05591 -0.71221,1.26379 1.08426,4.14334 1.42796,8.61385 1.34647,13.2686 2.03151,-4.45161 5.85477,-5.54178 5.19807,-1.28741 -0.389767,2.52994 -2.8453,6.49021 -4.85201,6.28588l-0.668509 1.18347c-0.11693,1.42324 -0.257482,2.85829 -0.416932,4.30043 0.0472445,0.200789 1.94765,2.87128 0.844495,5.46028 1.11261,-0.227955 1.84608,0.940165 1.67954,2.8075 -0.0460634,0.506697 -0.153545,1.01694 -0.309451,1.50592 2.29962,-2.64805 6.51147,-2.37522 6.51147,0.881109 0,1.38663 -0.870479,2.80514 -2.13663,3.70042 3.14648,-0.518508 4.53901,1.02048 1.10906,3.74767 -2.4638,1.96065 -6.26934,3.41814 -8.49574,3.25632 -0.661423,-0.0484256 -1.11024,-0.23386 -1.34883,-0.522051l-0.405121 0.17008c-0.155907,1.73623 -0.277561,3.45711 -0.349609,5.15437l8.3044 0c5.86776,10.1977 4.1268,22.499 -5.27012,27.8423l0.392129 2.69648c0.161812,1.04174 -1.50237,1.61222 -2.17088,1.13269l-2.31734 -2.10238c-4.43626,1.30867 -10.0619,1.29922 -14.4804,-0.0224411l-2.34214 2.12482c-0.668509,0.479531 -2.33151,-0.0909456 -2.17088,-1.13269l0.400397 -2.75081c-9.55283,-5.51579 -10.9961,-18.2163 -5.39532,-27.788l5.84296 0c-0.99922,-0.344885 -2.00435,-1.12206 -2.80396,-2.09175 -0.955519,0.72284 -4.78586,-1.01812 -6.02249,-2.15317 -1.05828,-0.972055 -0.66969,-1.54371 0.868117,-1.27796 1.27796,0.220868 2.94687,0.950795 4.08192,1.74805 -0.402759,-0.858668 -0.68032,-2.01498 -0.47835,-2.86065 -0.497248,-0.740557 -0.954338,-1.52718 -1.35474,-2.3823 -1.71379,0.0153545 -3.0579,-1.46576 -3.64491,-3.16065 -1.1882,3.22325 -6.92368,1.01221 -6.92368,-2.70947 0,-1.79883 1.58623,-2.85829 3.54097,-2.36577zm16.7753 17.2537c-0.4252,-0.516146 -0.827959,-1.1008 -1.213,-1.74686 -0.0200789,0.66969 -0.243309,1.19529 -0.623627,1.52954 0.0614178,0.0720478 0.122836,0.144096 0.185435,0.217325l1.65119 0zm6.82328 0l1.76931 0 0.11693 -1.35592c-0.338979,-0.343703 -0.51024,-0.99922 -0.472445,-1.90986 -0.304727,0.137009 -0.633076,0.25512 -0.979142,0.353152 -0.150001,0.917724 -0.296459,1.88742 -0.434649,2.91262zm2.53703 0l5.04571 0c0.204332,-4.86027 0.812605,-9.89535 1.47521,-14.9552 0.0141733,-0.538587 0.00708667,-1.10316 0.121655,-1.66064 -1.38426,1.96419 -5.13429,3.502 -7.06069,3.50672 -0.118111,1.39253 -0.373231,2.90435 -0.686226,4.62169 0.470082,0.238585 0.870479,0.513784 1.19292,0.813786 2.4449,-5.2713 6.15714,-6.378 5.1898,-1.23426 -0.548036,2.9079 -3.08388,7.67486 -5.18508,7.82368l-0.0933078 1.08426zm13.1517 1.62757l-31.4376 0c-4.41027,8.33038 -3.52916,19.6809 5.25358,24.7526l0.955519 0.551579 -0.427562 2.93152 2.3575 -2.13781c5.38469,1.60986 9.92016,1.61458 15.3096,0.0248033l2.33033 2.11301 -0.420476 -2.88546 0.966149 -0.549217c8.88314,-5.05161 9.62488,-16.2486 5.11303,-24.801zm-13.7304 -18.7915c0.0826778,0.413389 0.141733,0.82914 0.179529,1.25198 1.81773,-1.43978 4.60515,-2.52994 6.25753,-2.41065 0.546855,0.0401578 0.894102,0.209057 1.04646,0.468901l0.118111 -0.888196c-2.11655,0.327168 -4.402,-1.14213 -5.70713,-2.82522 0.59528,1.60867 -0.448822,3.42286 -1.8945,4.40318zm-1.24371 8.36345c0.101576,-0.564571 0.197246,-1.1067 0.282286,-1.62875l-1.27324 -0.711029c-0.617721,0.226773 -1.36537,0.224411 -2.16143,-0.0507878 0.13819,0.72284 0.0661423,1.35355 -0.172442,1.81891 1.09961,-0.00236222 2.28545,0.183072 3.32483,0.571658zm0.407484 -2.43191c0.101576,-0.688588 0.18071,-1.34411 0.230317,-1.97364 -0.0165356,-0.00472445 -0.03189,-0.00944889 -0.0472445,-0.0141733 -0.0992134,0.692131 -0.394491,1.24489 -0.825597,1.62875l0.642525 0.359058zm0.275199 -3.99806c-0.0236222,-0.519689 -0.0767723,-1.0252 -0.165356,-1.52482 -0.240947,0.108662 -0.491342,0.198427 -0.747644,0.263388 0.304727,0.484256 0.538587,1.00276 0.685045,1.52836 0.0685045,-0.0874023 0.144096,-0.177167 0.227955,-0.266931zm8.2288 1.826l-0.0259845 0.203151 0.0803156 -0.14882c-0.0188978,-0.0177167 -0.0366145,-0.0354333 -0.0543311,-0.0543311zm-0.289372 2.30435c-0.0944889,0.771266 -0.184253,1.54253 -0.270475,2.31025l3.79373 -3.10278c-0.484256,-0.614178 -0.646068,-1.54135 -0.484256,-2.36577 -0.519689,0.677958 -1.20355,1.29686 -2.0008,1.22954l-1.0382 1.92876zm-0.381499 3.31774c-0.0625989,0.590556 -0.122836,1.17993 -0.179529,1.76694l0.131103 -0.0543311c0.248033,-1.94647 4.01342,-4.05712 5.88666,-4.83075 -0.517327,-0.0484256 -0.982685,-0.211419 -1.36655,-0.468901l-4.43626 3.62956 -0.0354333 -0.04252zm2.2701 -31.1483c-0.00590556,-0.40394 -0.0153545,-0.805518 -0.0283467,-1.20473 -0.115749,0.200789 -0.261026,0.377956 -0.43583,0.527957l0.464177 0.676777zm-0.711029 -7.98195c-0.179529,-1.00631 -0.395672,-1.9949 -0.654336,-2.96341 -0.764179,-0.412208 -1.07954,-1.71497 -0.929535,-2.86065 -0.121655,0.158269 -0.258663,0.275199 -0.40394,0.343703 -0.245671,2.2701 0.381499,4.25318 1.98781,5.48036zm-22.0041 32.3967c-0.0708667,-0.0413389 -0.137009,-0.0909456 -0.199608,-0.147639 0.0507878,0.226773 0.101576,0.452366 0.153545,0.676777l0.0460634 -0.529138z" style="fill: #111111;">
			</path>
		</g>
	</g>
	<g id="SvgjsG1625" featurekey="nameFeature-0" transform="matrix(1.037449795563918,0,0,1.037449795563918,77.52796452106777,12.801663926529653)" fill="#111111">
		<path d="M6.6211 12.09 l-4.2383 0 l0 27.91 l4.2383 0 l0 -27.91 z M27.34425 12.050999999999998 l0 19.98 l-11.934 -19.98 l-4.4336 0 l0 27.949 l4.2383 0 l0 -19.98 l11.953 19.98 l4.4336 0 l0 -27.949 l-4.2578 0 z M35.039075 12.050999999999998 l0 4.2383 l5.918 0 l0 23.711 l4.2578 0 l0 -23.711 l5.918 0 l0 -4.2383 l-16.094 0 z M54.94145625 12.050999999999998 l0 27.949 l14.258 0 l0 -4.2383 l-10.02 0 l0 -7.6563 l7.7344 0 l0 -4.2383 l-7.7344 0 l0 -7.5781 l10.02 0 l0 -4.2383 l-14.258 0 z M76.62110625 23.984 l0 -7.6953 l6.0742 0 c1.0547 0 1.9596 0.3776 2.7148 1.1328 c0.74219 0.75521 1.1133 1.6667 1.1133 2.7344 c0 1.0547 -0.37109 1.9531 -1.1133 2.6953 c-0.75521 0.75521 -1.6602 1.1328 -2.7148 1.1328 l-6.0742 0 z M85.85890625 27.578 c1.4583 -0.625 2.6367 -1.6015 3.5352 -2.9297 c0.92447 -1.3542 1.3867 -2.8516 1.3867 -4.4922 c0 -2.2396 -0.79428 -4.1471 -2.3828 -5.7227 c-1.5755 -1.5885 -3.4766 -2.3828 -5.7031 -2.3828 l-10.313 0 l0 27.949 l4.2383 0 l0 -11.777 l4.7852 0 l6.1133 11.777 l4.7852 0 z M98.98438125 12.09 l-4.2383 0 l0 27.91 l4.2383 0 l0 -27.91 z M109.31643125 18.945 c-1.9531 1.9531 -2.9297 4.31 -2.9297 7.0703 s0.97656 5.1172 2.9297 7.0703 s4.31 2.9297 7.0703 2.9297 s5.1172 -0.97656 7.0703 -2.9297 s2.9297 -4.31 2.9297 -7.0703 s-0.97656 -5.1172 -2.9297 -7.0703 s-4.31 -2.9297 -7.0703 -2.9297 s-5.1172 0.97656 -7.0703 2.9297 z M106.30863125 36.0937 c-2.7865 -2.7865 -4.1797 -6.1459 -4.1797 -10.078 s1.3932 -7.2916 4.1797 -10.078 s6.1459 -4.1797 10.078 -4.1797 s7.2916 1.3932 10.078 4.1797 s4.1797 6.1459 4.1797 10.078 s-1.3932 7.2916 -4.1797 10.078 s-6.1459 4.1797 -10.078 4.1797 s-7.2916 -1.3932 -10.078 -4.1797 z M137.94923125 23.984 l0 -7.6953 l6.0742 0 c1.0547 0 1.9596 0.3776 2.7148 1.1328 c0.74219 0.75521 1.1133 1.6667 1.1133 2.7344 c0 1.0547 -0.37109 1.9531 -1.1133 2.6953 c-0.75521 0.75521 -1.6602 1.1328 -2.7148 1.1328 l-6.0742 0 z M147.18703125 27.578 c1.4583 -0.625 2.6367 -1.6015 3.5352 -2.9297 c0.92447 -1.3542 1.3867 -2.8516 1.3867 -4.4922 c0 -2.2396 -0.79428 -4.1471 -2.3828 -5.7227 c-1.5755 -1.5885 -3.4766 -2.3828 -5.7031 -2.3828 l-10.313 0 l0 27.949 l4.2383 0 l0 -11.777 l4.7852 0 l6.1133 11.777 l4.7852 0 z M170.09768125 35.7812 l3.125 -0.000019073 c2.6822 0 4.9805 -0.95703 6.8945 -2.8711 c1.901 -1.901 2.8516 -4.1928 2.8516 -6.875 c0 -2.6953 -0.95053 -4.9936 -2.8516 -6.8945 c-1.9141 -1.9141 -4.2123 -2.8711 -6.8945 -2.8711 l-3.125 0 l0 19.512 z M165.87888125 39.999980927 l0 -27.949 l7.3438 0 c3.8541 0 7.1484 1.3672 9.8828 4.1016 c2.7213 2.7344 4.082 6.0287 4.082 9.8828 c0 3.8412 -1.3607 7.1289 -4.082 9.8633 c-2.7344 2.7344 -6.0287 4.1016 -9.8828 4.1016 l-7.3438 0 z M190.72270625 12.050999999999998 l0 27.949 l14.258 0 l0 -4.2383 l-10.02 0 l0 -7.6563 l7.7344 0 l0 -4.2383 l-7.7344 0 l0 -7.5781 l10.02 0 l0 -4.2383 l-14.258 0 z M215.82035625 40.25391 c-1.849 -0.078125 -3.5547 -0.57291 -5.1172 -1.4844 c-1.7708 -1.0287 -2.9752 -2.4088 -3.6133 -4.1406 l3.9844 -1.4648 c0.32553 0.85938 0.99609 1.556 2.0117 2.0898 c0.89844 0.45572 1.875 0.70963 2.9297 0.76172 c1.6276 0.065098 2.9752 -0.33203 4.043 -1.1914 c0.89844 -0.72916 1.3737 -1.5625 1.4258 -2.5 c0.078125 -1.7838 -1.7904 -3.2096 -5.6055 -4.2773 c-5.9766 -1.6797 -8.8736 -4.5248 -8.6914 -8.5352 c0.11719 -2.8125 1.3216 -4.9154 3.6133 -6.3086 c1.7448 -1.0677 3.8412 -1.543 6.2891 -1.4258 c2.9688 0.13021 5.3516 1.1654 7.1484 3.1055 l-3.1055 2.8906 c-1.0156 -1.0938 -2.4283 -1.6797 -4.2383 -1.7578 c-1.276 -0.05209 -2.3633 0.11066 -3.2617 0.48826 c-1.4063 0.59896 -2.142 1.6667 -2.207 3.2031 c-0.078125 1.7578 1.7904 3.1705 5.6055 4.2383 c3.4375 0.96354 5.8725 2.3828 7.3047 4.2578 c0.98959 1.3021 1.4518 2.7408 1.3867 4.3164 c-0.10416 2.2135 -1.1068 4.0885 -3.0078 5.625 c-1.7708 1.4193 -3.8932 2.1289 -6.3672 2.1289 c-0.18229 0 -0.35807 -0.0065041 -0.52734 -0.019531 z M233.3789125 12.09 l-4.2383 0 l0 27.91 l4.2383 0 l0 -27.91 z M240.9960625 36.0937 c-2.7865 -2.7865 -4.1797 -6.1459 -4.1797 -10.078 s1.3932 -7.2916 4.1797 -10.078 s6.1459 -4.1797 10.078 -4.1797 c1.9401 0 3.7891 0.37109 5.5469 1.1133 l-1.6406 3.9258 c-1.25 -0.53385 -2.5521 -0.80078 -3.9063 -0.80078 c-2.7604 0 -5.1172 0.98307 -7.0703 2.9492 c-1.9531 1.9531 -2.9297 4.31 -2.9297 7.0703 s0.97656 5.1172 2.9297 7.0703 s4.31 2.9297 7.0703 2.9297 c0.89844 0 1.7708 -0.11068 2.6172 -0.33203 l0 -7.6172 l-4.5313 0 l0 -4.2578 l8.7891 0 l0 14.785 l-1.2891 0.54688 c-1.7838 0.75521 -3.6459 1.1328 -5.5859 1.1328 c-3.9322 0 -7.2916 -1.3932 -10.078 -4.1797 z M277.32471875 12.050999999999998 l0 19.98 l-11.934 -19.98 l-4.4336 0 l0 27.949 l4.2383 0 l0 -19.98 l11.953 19.98 l4.4336 0 l0 -27.949 l-4.2578 0 z">
		</path>
	</g>
	<g id="SvgjsG1626" featurekey="sloganFeature-0" transform="matrix(1.462333824020028,0,0,1.462333824020028,78.25777610460761,56.403087699103935)" fill="#111111">
		<path d="M8.9941 6.025 l0 5.918 l-5.6836 0 l0 -5.8984 l-2.1191 0 l0 13.955 l2.1191 0 l0 -5.9375 l5.6836 0 l0 5.9375 l2.1191 0 l0 -13.975 l-2.1191 0 z M16.19136875 9.473 c-0.97656 0.97656 -1.4648 2.155 -1.4648 3.5352 s0.48828 2.5586 1.4648 3.5352 s2.155 1.4648 3.5352 1.4648 s2.5586 -0.48828 3.5352 -1.4648 s1.4648 -2.155 1.4648 -3.5352 s-0.48828 -2.5586 -1.4648 -3.5352 s-2.155 -1.4648 -3.5352 -1.4648 s-2.5586 0.48828 -3.5352 1.4648 z M14.68746875 18.0469 c-1.3933 -1.3933 -2.0898 -3.0729 -2.0898 -5.0391 s0.69661 -3.6458 2.0898 -5.0391 s3.0729 -2.0898 5.0391 -2.0898 s3.6458 0.69661 5.0391 2.0898 s2.0898 3.0729 2.0898 5.0391 s-0.69661 3.6458 -2.0898 5.0391 s-3.0729 2.0898 -5.0391 2.0898 s-3.6458 -0.69661 -5.0391 -2.0898 z M40.74221875 6.025 l-4.9805 11.406 l-4.9219 -11.406 l-2.2168 0 l0 13.975 l2.1191 0 l0 -8.8184 l3.8184 8.8184 l2.3926 0 l3.8867 -8.877 l0 8.877 l2.1191 0 l0 -13.975 l-2.2168 0 z M45.322290625 6.025 l0 13.975 l7.1289 0 l0 -2.1191 l-5.0098 0 l0 -3.8281 l3.8672 0 l0 -2.1191 l-3.8672 0 l0 -3.7891 l5.0098 0 l0 -2.1191 l-7.1289 0 z M62.832053125 20.12695 c-0.92448 -0.039063 -1.7773 -0.28646 -2.5586 -0.74219 c-0.88542 -0.51433 -1.4876 -1.2044 -1.8066 -2.0703 l1.9922 -0.73242 c0.16276 0.42969 0.49805 0.778 1.0059 1.0449 c0.44922 0.22786 0.9375 0.35481 1.4648 0.38086 c0.8138 0.032549 1.4876 -0.16602 2.0215 -0.5957 c0.44922 -0.36458 0.68685 -0.78125 0.71289 -1.25 c0.039063 -0.89192 -0.89519 -1.6048 -2.8027 -2.1387 c-2.9883 -0.83984 -4.4368 -2.2624 -4.3457 -4.2676 c0.058594 -1.4063 0.66081 -2.4577 1.8066 -3.1543 c0.87239 -0.53386 1.9206 -0.77148 3.1445 -0.71289 c1.4844 0.065107 2.6758 0.58269 3.5742 1.5527 l-1.5527 1.4453 c-0.50781 -0.54688 -1.2142 -0.83984 -2.1191 -0.87891 c-0.63802 -0.026045 -1.1816 0.055332 -1.6309 0.24413 c-0.70313 0.29948 -1.071 0.83334 -1.1035 1.6016 c-0.039063 0.87891 0.89519 1.5853 2.8027 2.1191 c1.7188 0.48177 2.9362 1.1914 3.6523 2.1289 c0.49479 0.65104 0.72592 1.3704 0.69337 2.1582 c-0.05208 1.1067 -0.55338 2.0442 -1.5039 2.8125 c-0.88542 0.70964 -1.9466 1.0645 -3.1836 1.0645 c-0.091143 0 -0.17903 -0.0032521 -0.26367 -0.0097656 z M68.98437125 6.025 l0 2.1191 l2.959 0 l0 11.855 l2.1289 0 l0 -11.855 l2.959 0 l0 -2.1191 l-8.0469 0 z M84.882790625 6.025 l-8.8379 13.975 l2.5098 0 l2.0605 -3.2617 l4.7461 0 l0 3.2617 l2.1289 0 l0 -13.975 l-2.6074 0 z M85.361290625 9.238 l0 5.3809 l-3.4082 0 z M91.367171875 18.0469 c-1.3933 -1.3933 -2.0898 -3.0729 -2.0898 -5.0391 s0.69661 -3.6458 2.0898 -5.0391 s3.0729 -2.0898 5.0391 -2.0898 c0.97005 0 1.8945 0.18555 2.7734 0.55664 l-0.82031 1.9629 c-0.625 -0.26692 -1.2761 -0.40039 -1.9531 -0.40039 c-1.3802 0 -2.5586 0.49153 -3.5352 1.4746 c-0.97656 0.97656 -1.4648 2.155 -1.4648 3.5352 s0.48828 2.5586 1.4648 3.5352 s2.155 1.4648 3.5352 1.4648 c0.44922 0 0.88542 -0.055342 1.3086 -0.16602 l0 -3.8086 l-2.2656 0 l0 -2.1289 l4.3945 0 l0 7.3926 l-0.64453 0.27344 c-0.89192 0.37761 -1.8229 0.56641 -2.793 0.56641 c-1.9661 0 -3.6458 -0.69661 -5.0391 -2.0898 z M103.623 6.045 l-2.1191 0 l0 13.955 l2.1191 0 l0 -13.955 z M113.984425 6.025 l0 9.9902 l-5.9668 -9.9902 l-2.2168 0 l0 13.975 l2.1191 0 l0 -9.9902 l5.9766 9.9902 l2.2168 0 l0 -13.975 l-2.1289 0 z M119.8144375 18.0469 c-1.3933 -1.3933 -2.0898 -3.0729 -2.0898 -5.0391 s0.69661 -3.6458 2.0898 -5.0391 s3.0729 -2.0898 5.0391 -2.0898 c0.97005 0 1.8945 0.18555 2.7734 0.55664 l-0.82031 1.9629 c-0.625 -0.26692 -1.2761 -0.40039 -1.9531 -0.40039 c-1.3802 0 -2.5586 0.49153 -3.5352 1.4746 c-0.97656 0.97656 -1.4648 2.155 -1.4648 3.5352 s0.48828 2.5586 1.4648 3.5352 s2.155 1.4648 3.5352 1.4648 c0.44922 0 0.88542 -0.055342 1.3086 -0.16602 l0 -3.8086 l-2.2656 0 l0 -2.1289 l4.3945 0 l0 7.3926 l-0.64453 0.27344 c-0.89192 0.37761 -1.8229 0.56641 -2.793 0.56641 c-1.9661 0 -3.6458 -0.69661 -5.0391 -2.0898 z">
		</path>
	</g>
</svg>
